<svg xmlns="http://www.w3.org/2000/svg" viewBox="0 0 128 128">
  <defs>
    <linearGradient id="bg" x1="0" y1="0" x2="1" y2="1">
      <stop offset="0%" stop-color="#26a269"/>
      <stop offset="100%" stop-color="#1a6b45"/>
    </linearGradient>
  </defs>
  <rect width="128" height="128" rx="20" fill="url(#bg)"/>
  <!-- Two speech bubbles -->
  <g opacity="0.93">
    <rect x="16" y="20" width="52" height="36" rx="8" fill="white"/>
    <polygon points="32,56 40,56 28,68" fill="white"/>
    <text x="42" y="44" font-family="sans-serif" font-size="16" fill="#1a6b45" text-anchor="middle" font-weight="bold">Hello</text>
  </g>
  <g opacity="0.93">
    <rect x="60" y="56" width="52" height="36" rx="8" fill="#d2f5e3"/>
    <polygon points="96,92 88,92 100,104" fill="#d2f5e3"/>
    <text x="86" y="80" font-family="sans-serif" font-size="16" fill="#1a6b45" text-anchor="middle" font-weight="bold">Hej</text>
  </g>
  <!-- Arrow between -->
  <path d="M56,50 Q72,52 68,62" fill="none" stroke="#f6d32d" stroke-width="2.5" marker-end="url(#arr)"/>
  <polygon points="66,60 72,64 68,56" fill="#f6d32d"/>
  <!-- AI sparkle -->
  <g transform="translate(104,22)" opacity="0.8">
    <polygon points="0,-8 2,-2 8,0 2,2 0,8 -2,2 -8,0 -2,-2" fill="#f6d32d"/>
  </g>
</svg>
